<svg viewBox="0 0 120 56" width="100" height="60" fill="none" xmlns="http://www.w3.org/2000/svg">
  <path d="M21.2591 0.750407L0.821151 25.6874C-0.27374 26.9869 -0.27374 28.9051 0.82115 30.2664L21.2591 55.2034C21.6241 55.6985 22.2323 55.946 22.8406 55.946L49.4221 55.946C49.9087 55.946 50.1521 55.451 49.8479 55.0797L29.4708 30.2664C28.3759 28.967 28.3759 27.0487 29.4708 25.6874L49.8479 0.874165C50.1521 0.502894 49.9087 0.00786529 49.4221 0.00786525L22.8406 0.00786292C22.2323 -0.0540156 21.6241 0.255379 21.2591 0.750407Z" fill="#DB0A5B"/>
  <path d="M98.723 55.1956L119.161 30.2586C120.256 28.9591 120.256 27.0409 119.161 25.6796L98.723 0.742541C98.358 0.247514 97.7497 0 97.1414 0L70.5599 0C70.0733 0 69.83 0.495028 70.1341 0.866298L90.5113 25.6796C91.6062 26.979 91.6062 28.8972 90.5113 30.2586L70.1341 55.0718C69.83 55.4431 70.0733 55.9381 70.5599 55.9381H97.1414C97.7497 56 98.358 55.6906 98.723 55.1956Z" fill="#DB0A5B"/>
</svg>