<svg viewBox="0 0 160 142" width="100" height="60" fill="none" xmlns="http://www.w3.org/2000/svg">
  <path d="M107.738 57.3912C117.442 61.3682 122.088 72.4679 118.112 82.172C114.135 91.8761 103.035 96.5226 93.3308 92.5457C83.6267 88.5687 78.9801 77.469 82.9571 67.7649C86.934 58.0608 98.0337 53.4143 107.738 57.3912ZM117.605 33.3141C94.6266 23.897 68.2971 34.9191 58.88 57.8976C49.4628 80.8762 60.4849 107.206 83.4635 116.623C106.442 126.04 132.772 115.018 142.189 92.0393C151.606 69.0608 140.584 42.7312 117.605 33.3141Z" fill="#E35205"/>
  <path d="M45.1814 63.1956C51.7227 65.8763 54.8548 73.3583 52.1741 79.8996C49.4933 86.4409 42.0113 89.573 35.47 86.8923C28.9288 84.2115 25.7966 76.7295 28.4774 70.1882C31.1581 63.6469 38.6402 60.5148 45.1814 63.1956ZM51.8328 46.9658C36.3435 40.618 18.5954 48.0476 12.2476 63.5369C5.89979 79.0261 13.3295 96.7742 28.8187 103.122C44.308 109.47 62.056 102.04 68.4039 86.5509C74.7517 71.0617 67.322 53.3136 51.8328 46.9658Z" fill="#F7A400" fill-opacity="0.9"/>
</svg>