<svg id="Layer_1" data-name="Layer 1" xmlns="http://www.w3.org/2000/svg" viewBox="0 0 1012.53 172.54"><defs><style>.cls-1{fill:#7a04dd;}</style></defs><polygon class="cls-1" points="539.48 139.27 574.57 139.27 574.57 32.91 539.48 32.91 539.48 139.27 539.48 139.27"/><path class="cls-1" d="M534.27,66.34H484.61l-29,28.9h39.82A33.39,33.39,0,1,1,483,53.59l26.83-26.83a71.07,71.07,0,1,0,25.86,54.88,57.8,57.8,0,0,0-1.45-15.3" transform="translate(-5.96 -10.61)"/><polygon class="cls-1" points="539.48 23.92 574.57 23.92 574.57 2.43 539.48 2.43 539.48 23.92 539.48 23.92"/><polygon class="cls-1" points="653.73 140 623.38 140 623.13 139.27 581.49 32.91 619.01 32.91 638.8 91.92 658.71 32.91 695.62 32.91 653.73 140 653.73 140"/><polygon class="cls-1" points="702.06 139.27 737.27 139.27 737.27 32.91 702.06 32.91 702.06 139.27 702.06 139.27"/><polygon class="cls-1" points="702.06 23.92 737.27 23.92 737.27 2.43 702.06 2.43 702.06 23.92 702.06 23.92"/><path class="cls-1" d="M852.15,149.88H817.06v-59c0-11.05-4.62-16.75-13.6-16.75-11.66,0-14.09,9.1-14.09,16.75v59H754.16V43.52h24.29L788,53.11c7.65-7.77,16.39-11.41,26.83-11.41C837.82,41.7,852,57.12,852,82l.12,67.87Z" transform="translate(-5.96 -10.61)"/><path class="cls-1" d="M53.07,151.7c-18.33,0-33.51-6.92-45.17-20.64L6,128.75,29.76,105l1.34,1.45c7.52,8.26,13.84,11.78,21.12,11.78,9.47,0,14-5.71,14-18V13h36.42v88.39c0,31.94-18.09,50.27-49.54,50.27" transform="translate(-5.96 -10.61)"/><path class="cls-1" d="M939.82,92.21c0,12.26-9.48,21.12-22.59,21.12s-22.34-8.74-22.34-21.12v-.37c0-12.26,9.47-21.12,22.34-21.12,13.11,0,22.59,8.86,22.59,21.12v.37Zm7.89-48.69-9,9c-8.5-7.4-18-10.93-29.75-10.93-23.79,0-48,17.25-48,50.15v.37c0,33,24.17,50.26,48,50.26,11.3,0,20.16-3.15,28.3-10.2C935.81,144.66,928.16,153,913,153a60.08,60.08,0,0,1-25.25-5.34l-23,22.94,3.15,1.71c13.36,7,29.14,10.8,45.78,10.8,40.43,0,59.25-20.64,59.25-59V43.52Z" transform="translate(-5.96 -10.61)"/><path class="cls-1" d="M151.55,151.7c-23,0-37.16-15.42-37.16-40.43V43.52h35.09v58.89c0,11.17,4.62,16.75,13.6,16.75,11.78,0,14.21-9.1,14.21-16.75V43.52H212.5V149.88H188.09l-9.59-9.59c-7.77,7.65-16.51,11.41-26.95,11.41" transform="translate(-5.96 -10.61)"/><path class="cls-1" d="M357.72,151.46c-21.73,0-32.42-10.93-32.42-33.39V74.6H313.4V43.52h11.9V13h35.09V43.52H383.7V74.6H360.39v39c0,4.73,1.34,6.19,5.59,6.19a23.93,23.93,0,0,0,12.26-3.16l5.1-2.79V144.3l-1.7,1c-7.16,4.25-14.69,6.19-23.92,6.19" transform="translate(-5.96 -10.61)"/><path class="cls-1" d="M275.64,84.44l-3.28-1.1c-8.13-2.79-16-5.34-16-8.86v-.36c0-3.4,4.25-4.74,8.38-4.74,5.59,0,13.24,2.31,21.37,6.43l20.28-20.27-1.58-1.1c-11.41-7.64-26.11-12.26-39.46-12.26-23.8,0-39.83,14-39.83,34.85v.36c0,20.77,16.27,28.29,32.18,33,1.33.36,2.67.85,3.88,1.21,8.38,2.43,15.67,4.62,15.67,8.38v.37c0,4.25-5.34,5.22-9.84,5.22-8.5,0-18.7-3.64-28.29-10L219.79,135l-.25.36,1.7,1.34a73.71,73.71,0,0,0,45.41,16c26,0,41.53-13.23,41.53-35.45v-.36c0-21.62-21.13-28.66-32.54-32.42" transform="translate(-5.96 -10.61)"/><path class="cls-1" d="M1018.49,61.27A17.34,17.34,0,1,1,1001.2,44,16.91,16.91,0,0,1,1018.49,61.27Zm-2.85,0a14.12,14.12,0,0,0-14.44-14.54,14.32,14.32,0,0,0-14.58,14.63,14.51,14.51,0,1,0,29-.09Zm-9.43,3.14,4.33,6.63h-4.23l-3.83-5.89h-4.37V71h-4.22V51.69h8.05c5.11,0,8.15,2.65,8.15,6.73A6,6,0,0,1,1006.21,64.41Zm-4.52-2.56c2.76,0,4.33-1.27,4.33-3.43s-1.57-3.39-4.33-3.39h-3.63v6.82Z" transform="translate(-5.96 -10.61)"/></svg>